<svg width="307" height="178" viewBox="0 0 307 178" fill="none" xmlns="http://www.w3.org/2000/svg">
<mask id="path-1-inside-1_2819_57" fill="white">
<path d="M223.375 42.7528C237.023 29.105 258.403 29.8471 265.778 37.2216C273.153 44.5961 273.896 65.978 260.248 79.6259C257.355 82.5187 254.232 84.9713 250.943 86.9999C254.232 89.0285 257.354 91.482 260.247 94.3749C273.895 108.023 273.153 129.404 265.778 136.778C258.404 144.153 237.023 144.895 223.375 131.248C220.482 128.355 218.028 125.232 216 121.943C213.971 125.232 211.519 128.355 208.626 131.248C194.978 144.896 173.596 144.153 166.222 136.778C158.847 129.403 158.105 108.023 171.753 94.3749C174.645 91.4823 177.767 89.0284 181.055 86.9999C177.767 84.9715 174.645 82.5183 171.753 79.6259C158.105 65.9781 158.847 44.5962 166.222 37.2216C173.596 29.847 194.978 29.105 208.626 42.7528C211.518 45.6451 213.971 48.7665 216 52.0546C218.028 48.7664 220.482 45.6452 223.375 42.7528Z"/>
</mask>
<path d="M223.375 42.7528C237.023 29.105 258.403 29.8471 265.778 37.2216C273.153 44.5961 273.896 65.978 260.248 79.6259C257.355 82.5187 254.232 84.9713 250.943 86.9999C254.232 89.0285 257.354 91.482 260.247 94.3749C273.895 108.023 273.153 129.404 265.778 136.778C258.404 144.153 237.023 144.895 223.375 131.248C220.482 128.355 218.028 125.232 216 121.943C213.971 125.232 211.519 128.355 208.626 131.248C194.978 144.896 173.596 144.153 166.222 136.778C158.847 129.403 158.105 108.023 171.753 94.3749C174.645 91.4823 177.767 89.0284 181.055 86.9999C177.767 84.9715 174.645 82.5183 171.753 79.6259C158.105 65.9781 158.847 44.5962 166.222 37.2216C173.596 29.847 194.978 29.105 208.626 42.7528C211.518 45.6451 213.971 48.7665 216 52.0546C218.028 48.7664 220.482 45.6452 223.375 42.7528Z" fill="url(#paint0_radial_2819_57)"/>
<path d="M223.375 42.7528L221.961 41.3386L221.961 41.3386L223.375 42.7528ZM265.778 37.2216L267.192 35.8073L267.192 35.8073L265.778 37.2216ZM260.248 79.6259L261.662 81.0401H261.662L260.248 79.6259ZM250.943 86.9999L249.893 85.2977L247.134 86.9999L249.893 88.7021L250.943 86.9999ZM260.247 94.3749L261.661 92.9607L261.661 92.9607L260.247 94.3749ZM265.778 136.778L267.192 138.192L267.192 138.192L265.778 136.778ZM223.375 131.248L221.961 132.662L221.961 132.662L223.375 131.248ZM216 121.943L217.702 120.893L216 118.134L214.298 120.893L216 121.943ZM208.626 131.248L210.04 132.662L208.626 131.248ZM166.222 136.778L164.807 138.192L164.807 138.192L166.222 136.778ZM171.753 94.3749L170.339 92.9607H170.339L171.753 94.3749ZM181.055 86.9999L182.106 88.7021L184.865 86.9999L182.106 85.2977L181.055 86.9999ZM171.753 79.6259L170.339 81.0401L170.339 81.0401L171.753 79.6259ZM166.222 37.2216L164.807 35.8073L164.807 35.8074L166.222 37.2216ZM208.626 42.7528L210.04 41.3386L210.04 41.3386L208.626 42.7528ZM216 52.0546L214.298 53.1046L216 55.8639L217.702 53.1046L216 52.0546ZM223.375 42.7528L224.789 44.167C231.227 37.7294 239.511 34.6664 247.079 34.0982C254.75 33.5222 261.252 35.5242 264.364 38.6358L265.778 37.2216L267.192 35.8073C262.929 31.5444 255.054 29.4882 246.779 30.1094C238.401 30.7385 229.171 34.1285 221.961 41.3386L223.375 42.7528ZM265.778 37.2216L264.364 38.6358C267.476 41.7474 269.478 48.2497 268.902 55.9216C268.334 63.4894 265.271 71.774 258.834 78.2116L260.248 79.6259L261.662 81.0401C268.872 73.8299 272.262 64.5996 272.891 56.2209C273.512 47.9462 271.455 40.0703 267.192 35.8073L265.778 37.2216ZM260.248 79.6259L258.834 78.2116C256.051 80.9947 253.05 83.3506 249.893 85.2977L250.943 86.9999L251.993 88.7021C255.414 86.592 258.659 84.0428 261.662 81.0401L260.248 79.6259ZM250.943 86.9999L249.893 88.7021C253.049 90.6489 256.049 93.0057 258.833 95.7891L260.247 94.3749L261.661 92.9607C258.659 89.9583 255.414 87.408 251.993 85.2977L250.943 86.9999ZM260.247 94.3749L258.833 95.7891C265.27 102.227 268.333 110.511 268.902 118.079C269.478 125.75 267.476 132.252 264.364 135.364L265.778 136.778L267.192 138.192C271.455 133.929 273.512 126.054 272.89 117.779C272.261 109.401 268.871 100.171 261.661 92.9607L260.247 94.3749ZM265.778 136.778L264.364 135.364C261.252 138.476 254.75 140.478 247.079 139.902C239.511 139.334 231.227 136.271 224.789 129.834L223.375 131.248L221.961 132.662C229.171 139.872 238.401 143.262 246.779 143.891C255.054 144.512 262.929 142.455 267.192 138.192L265.778 136.778ZM223.375 131.248L224.789 129.834C222.006 127.05 219.649 124.05 217.702 120.893L216 121.943L214.298 122.993C216.408 126.414 218.958 129.66 221.961 132.662L223.375 131.248ZM216 121.943L214.298 120.893C212.351 124.05 209.995 127.051 207.212 129.834L208.626 131.248L210.04 132.662C213.043 129.659 215.592 126.414 217.702 122.993L216 121.943ZM208.626 131.248L207.212 129.834C200.774 136.271 192.489 139.334 184.921 139.902C177.25 140.478 170.747 138.476 167.636 135.364L166.222 136.778L164.807 138.192C169.07 142.455 176.946 144.512 185.221 143.891C193.6 143.262 202.83 139.872 210.04 132.662L208.626 131.248ZM166.222 136.778L167.636 135.364C164.524 132.252 162.522 125.75 163.098 118.079C163.666 110.511 166.729 102.227 173.167 95.7891L171.753 94.3749L170.339 92.9607C163.128 100.171 159.739 109.401 159.109 117.779C158.488 126.054 160.544 133.929 164.807 138.192L166.222 136.778ZM171.753 94.3749L173.167 95.7891C175.95 93.0058 178.95 90.6487 182.106 88.7021L181.055 86.9999L180.005 85.2977C176.584 87.408 173.341 89.9587 170.339 92.9607L171.753 94.3749ZM181.055 86.9999L182.106 85.2977C178.95 83.351 175.95 80.9945 173.167 78.2116L171.753 79.6259L170.339 81.0401C173.341 84.0421 176.585 86.5919 180.005 88.7021L181.055 86.9999ZM171.753 79.6259L173.167 78.2116C166.729 71.774 163.666 63.4894 163.098 55.9215C162.522 48.2497 164.524 41.7474 167.636 38.6357L166.222 37.2216L164.807 35.8074C160.544 40.0704 158.488 47.9464 159.109 56.221C159.738 64.5997 163.128 73.8299 170.339 81.0401L171.753 79.6259ZM166.222 37.2216L167.636 38.6358C170.747 35.5242 177.25 33.5221 184.921 34.0982C192.489 34.6664 200.774 37.7293 207.212 44.167L208.626 42.7528L210.04 41.3386C202.83 34.1284 193.6 30.7385 185.221 30.1094C176.946 29.4881 169.07 31.5444 164.807 35.8073L166.222 37.2216ZM208.626 42.7528L207.212 44.167C209.994 46.9499 212.351 49.9492 214.298 53.1046L216 52.0546L217.702 51.0045C215.592 47.5839 213.042 44.3403 210.04 41.3386L208.626 42.7528ZM216 52.0546L217.702 53.1046C219.648 49.9492 222.006 46.9502 224.789 44.167L223.375 42.7528L221.961 41.3386C218.959 44.3403 216.408 47.5835 214.298 51.0045L216 52.0546Z" fill="white" fill-opacity="0.25" mask="url(#path-1-inside-1_2819_57)"/>
<path d="M28.5037 119.5V59.0445H44.9165V106.275H69.3584V119.5H28.5037ZM76.2291 119.5V74.1583H92.5237V119.5H76.2291ZM84.3764 69.4353C82.1723 69.4353 80.2831 68.7071 78.7087 67.2508C77.1343 65.7945 76.3471 64.0431 76.3471 61.9964C76.3471 59.9497 77.1343 58.1982 78.7087 56.742C80.2831 55.2857 82.1723 54.5575 84.3764 54.5575C86.6002 54.5575 88.4894 55.2857 90.0441 56.742C91.6185 58.1982 92.4056 59.9497 92.4056 61.9964C92.4056 64.0431 91.6185 65.7945 90.0441 67.2508C88.4894 68.7071 86.6002 69.4353 84.3764 69.4353ZM117.121 59.0445V119.5H100.826V59.0445H117.121ZM141.718 59.0445V119.5H125.423V59.0445H141.718ZM162.654 120.208C159.761 120.208 157.203 119.736 154.979 118.792C152.775 117.827 151.043 116.371 149.784 114.423C148.524 112.474 147.895 109.995 147.895 106.984C147.895 104.504 148.318 102.389 149.164 100.637C150.01 98.866 151.191 97.4196 152.706 96.2978C154.222 95.1761 155.983 94.32 157.99 93.7296C160.017 93.1393 162.202 92.7555 164.543 92.5784C167.082 92.3816 169.119 92.1454 170.654 91.8699C172.209 91.5747 173.33 91.1713 174.019 90.6596C174.708 90.1283 175.052 89.4297 175.052 88.5638V88.4457C175.052 87.2649 174.6 86.3597 173.694 85.7299C172.789 85.1002 171.628 84.7853 170.211 84.7853C168.656 84.7853 167.387 85.1297 166.403 85.8185C165.439 86.4876 164.858 87.5208 164.662 88.918H149.666C149.863 86.1629 150.738 83.6242 152.293 81.302C153.867 78.9602 156.16 77.0906 159.171 75.6934C162.182 74.2764 165.941 73.568 170.447 73.568C173.694 73.568 176.607 73.9517 179.185 74.7192C181.763 75.467 183.957 76.5199 185.768 77.8778C187.578 79.216 188.956 80.7903 189.901 82.6009C190.865 84.3917 191.347 86.34 191.347 88.4457V119.5H176.115V113.124H175.761C174.856 114.816 173.753 116.184 172.455 117.227C171.175 118.27 169.709 119.028 168.056 119.5C166.423 119.972 164.622 120.208 162.654 120.208ZM167.968 109.936C169.208 109.936 170.369 109.68 171.451 109.168C172.553 108.657 173.448 107.919 174.137 106.954C174.826 105.99 175.17 104.819 175.17 103.441V99.663C174.737 99.8401 174.275 100.007 173.783 100.165C173.311 100.322 172.799 100.47 172.248 100.608C171.717 100.745 171.146 100.873 170.536 100.991C169.945 101.109 169.326 101.218 168.676 101.316C167.417 101.513 166.383 101.838 165.577 102.29C164.789 102.723 164.199 103.264 163.805 103.914C163.432 104.544 163.245 105.252 163.245 106.039C163.245 107.299 163.687 108.263 164.573 108.932C165.459 109.601 166.59 109.936 167.968 109.936Z" fill="white"/>
<defs>
<radialGradient id="paint0_radial_2819_57" cx="0" cy="0" r="1" gradientUnits="userSpaceOnUse" gradientTransform="translate(270.753 141.753) rotate(-134.898) scale(182.763 182.763)">
<stop stop-color="#4DA4FF"/>
<stop offset="1" stop-color="#ED6AFF"/>
</radialGradient>
</defs>
</svg>
